<svg width="16" height="10" viewBox="0 0 16 10" fill="none" xmlns="http://www.w3.org/2000/svg">
<path d="M8.79408 8.91832L14.8813 2.56135C14.9822 2.45694 15.0624 2.33272 15.1171 2.19586C15.1718 2.05899 15.2 1.91219 15.2 1.76392C15.2 1.61565 15.1718 1.46885 15.1171 1.33199C15.0624 1.19512 14.9822 1.0709 14.8813 0.966493C14.6794 0.757307 14.4063 0.639893 14.1217 0.639893C13.8371 0.639893 13.564 0.757307 13.3622 0.966493L7.97528 6.52603L2.64226 0.966492C2.4404 0.757307 2.16734 0.639892 1.88271 0.639892C1.59808 0.639892 1.32502 0.757307 1.12316 0.966492C1.02136 1.07051 0.940375 1.19456 0.884894 1.33144C0.829412 1.46832 0.800541 1.61532 0.79995 1.76392C0.800541 1.91252 0.829412 2.05952 0.884894 2.1964C0.940375 2.33329 1.02136 2.45733 1.12316 2.56135L7.21034 8.91832C7.31123 9.03232 7.43367 9.12331 7.56996 9.18554C7.70625 9.24777 7.85343 9.27989 8.00221 9.27989C8.151 9.27989 8.29818 9.24777 8.43446 9.18554C8.57075 9.12331 8.6932 9.03232 8.79408 8.91832Z" fill="white"/>
</svg>
