<svg aria-hidden="true" style="position: absolute; width: 0; height: 0; overflow: hidden;" version="1.1" xmlns="http://www.w3.org/2000/svg" xmlns:xlink="http://www.w3.org/1999/xlink">
<defs>
<symbol id="confirm_icon" viewBox="0 0 32 32">
<path fill="#67d9b7" style="fill: var(--color1, #67d9b7)" d="M13.333 18.667c-0.406-0.005-0.804 0.115-1.139 0.343s-0.594 0.554-0.739 0.933c-0.145 0.379-0.171 0.794-0.073 1.188s0.313 0.749 0.618 1.017v1.853c0 0.354 0.14 0.693 0.391 0.943s0.589 0.391 0.943 0.391c0.354 0 0.693-0.141 0.943-0.391s0.391-0.589 0.391-0.943v-1.853c0.305-0.268 0.521-0.623 0.619-1.017s0.072-0.809-0.073-1.188-0.403-0.705-0.739-0.933c-0.336-0.228-0.733-0.348-1.139-0.343zM20 13.333v-2.667c0-1.768-0.702-3.464-1.953-4.714s-2.946-1.953-4.714-1.953-3.464 0.702-4.714 1.953c-1.25 1.25-1.953 2.946-1.953 4.714v2.667c-1.061 0-2.078 0.421-2.828 1.172s-1.172 1.768-1.172 2.828v9.333c0 1.061 0.421 2.078 1.172 2.828s1.768 1.172 2.828 1.172h13.333c1.061 0 2.078-0.421 2.828-1.172s1.172-1.768 1.172-2.828v-9.333c0-1.061-0.421-2.078-1.172-2.828s-1.768-1.172-2.828-1.172zM9.333 10.667c0-1.061 0.421-2.078 1.172-2.828s1.768-1.172 2.828-1.172c1.061 0 2.078 0.421 2.828 1.172s1.172 1.768 1.172 2.828v2.667h-8v-2.667zM21.333 26.667c0 0.354-0.141 0.693-0.391 0.943s-0.589 0.391-0.943 0.391h-13.333c-0.354 0-0.693-0.141-0.943-0.391s-0.391-0.589-0.391-0.943v-9.333c0-0.354 0.14-0.693 0.391-0.943s0.589-0.391 0.943-0.391h13.333c0.354 0 0.693 0.141 0.943 0.391s0.391 0.589 0.391 0.943v9.333z"></path>
<path fill="#67d9b7" style="fill: var(--color1, #67d9b7)" d="M23.771 28h1.562c1.061 0 2.078-0.421 2.828-1.172s1.172-1.768 1.172-2.828v-9.333c0-1.061-0.421-2.078-1.172-2.828s-1.767-1.172-2.828-1.172v-2.667c0-1.768-0.702-3.464-1.953-4.714s-2.946-1.953-4.714-1.953-3.464 0.702-4.714 1.953c-0.224 0.224-0.431 0.463-0.619 0.714 1.064 0 2.101 0.254 3.031 0.729 0.669-0.471 1.473-0.729 2.302-0.729 1.061 0 2.078 0.421 2.828 1.172s1.172 1.768 1.172 2.828v2.667h-2.667v2.667h5.333c0.354 0 0.693 0.141 0.943 0.391s0.391 0.589 0.391 0.943v9.333c0 0.354-0.14 0.693-0.391 0.943s-0.589 0.391-0.943 0.391h-1.333v1.333c0 0.459-0.079 0.909-0.229 1.333z"></path>
</symbol>
<symbol id="country_icon" viewBox="0 0 32 32">
<path fill="#67d9b7" style="fill: var(--color1, #67d9b7)" d="M27.28 12.84c-0.187-1.948-0.876-3.815-1.998-5.418s-2.641-2.888-4.408-3.73-3.721-1.212-5.674-1.074c-1.952 0.138-3.835 0.779-5.466 1.861-1.401 0.937-2.577 2.172-3.444 3.618s-1.403 3.065-1.569 4.742c-0.163 1.666 0.046 3.348 0.614 4.923s1.478 3.004 2.666 4.184l7.067 7.080c0.124 0.125 0.271 0.224 0.434 0.292s0.337 0.103 0.513 0.103c0.176 0 0.35-0.035 0.513-0.103s0.31-0.167 0.434-0.292l7.040-7.080c1.188-1.179 2.099-2.609 2.666-4.184s0.777-3.257 0.614-4.923v0zM22.133 20.067l-6.133 6.133-6.133-6.133c-0.904-0.904-1.596-1.997-2.027-3.2s-0.59-2.487-0.466-3.76c0.125-1.292 0.536-2.54 1.202-3.654s1.572-2.066 2.651-2.786c1.415-0.94 3.075-1.441 4.773-1.441s3.359 0.501 4.773 1.441c1.076 0.718 1.98 1.666 2.646 2.775s1.079 2.352 1.208 3.639c0.128 1.277-0.029 2.566-0.46 3.774s-1.126 2.306-2.033 3.213v0zM16 8c-1.187 0-2.347 0.352-3.333 1.011s-1.756 1.596-2.21 2.693-0.573 2.303-0.341 3.467c0.232 1.164 0.803 2.233 1.642 3.072s1.908 1.411 3.072 1.642c1.164 0.232 2.37 0.113 3.467-0.341s2.033-1.223 2.693-2.21c0.659-0.987 1.011-2.147 1.011-3.333-0.004-1.59-0.637-3.114-1.761-4.239s-2.649-1.758-4.239-1.761v0zM16 17.333c-0.659 0-1.304-0.195-1.852-0.562s-0.975-0.887-1.228-1.496-0.318-1.279-0.19-1.926c0.129-0.647 0.446-1.241 0.912-1.707s1.060-0.784 1.707-0.912c0.647-0.129 1.317-0.063 1.926 0.19s1.13 0.68 1.496 1.228c0.366 0.548 0.562 1.193 0.562 1.852 0 0.884-0.351 1.732-0.976 2.357s-1.473 0.976-2.357 0.976v0z"></path>
</symbol>
<symbol id="email_icon" viewBox="0 0 32 32">
<path fill="#67d9b7" style="fill: var(--color1, #67d9b7)" d="M25.333 5.333h-18.667c-1.061 0-2.078 0.421-2.828 1.172s-1.172 1.768-1.172 2.828v13.333c0 1.061 0.421 2.078 1.172 2.828s1.768 1.172 2.828 1.172h18.667c1.061 0 2.078-0.421 2.828-1.172s1.172-1.768 1.172-2.828v-13.333c0-1.061-0.421-2.078-1.172-2.828s-1.768-1.172-2.828-1.172zM24.787 8l-7.84 7.84c-0.124 0.125-0.271 0.224-0.434 0.292s-0.337 0.103-0.513 0.103-0.35-0.035-0.513-0.103c-0.162-0.068-0.31-0.167-0.434-0.292l-7.84-7.84h17.573zM26.667 22.667c0 0.354-0.141 0.693-0.391 0.943s-0.589 0.391-0.943 0.391h-18.667c-0.354 0-0.693-0.141-0.943-0.391s-0.391-0.589-0.391-0.943v-12.787l7.84 7.84c0.75 0.749 1.767 1.17 2.827 1.17s2.077-0.421 2.827-1.17l7.84-7.84v12.787z"></path>
</symbol>
<symbol id="name_icon" viewBox="0 0 32 32">
<path fill="#67d9b7" style="fill: var(--color1, #67d9b7)" d="M20.947 16.947c1.307-1.028 2.261-2.439 2.73-4.035s0.428-3.298-0.117-4.87-1.565-2.935-2.92-3.899c-1.355-0.965-2.977-1.483-4.64-1.483s-3.285 0.518-4.64 1.483-2.375 2.328-2.92 3.899c-0.544 1.572-0.585 3.274-0.117 4.87s1.422 3.006 2.73 4.035c-2.24 0.897-4.194 2.386-5.655 4.307s-2.372 4.202-2.639 6.6c-0.019 0.175-0.004 0.352 0.045 0.521s0.131 0.327 0.241 0.464c0.223 0.278 0.546 0.455 0.9 0.494s0.708-0.064 0.986-0.287c0.278-0.223 0.455-0.546 0.494-0.9 0.293-2.606 1.536-5.014 3.491-6.762s4.486-2.714 7.109-2.714c2.623 0 5.154 0.966 7.109 2.714s3.198 4.155 3.491 6.762c0.036 0.328 0.193 0.63 0.439 0.849s0.565 0.339 0.895 0.337h0.147c0.349-0.040 0.669-0.217 0.889-0.492s0.322-0.625 0.285-0.975c-0.267-2.405-1.184-4.692-2.652-6.616s-3.432-3.412-5.681-4.304v0zM16 16c-1.055 0-2.086-0.313-2.963-0.899s-1.561-1.419-1.964-2.394c-0.404-0.975-0.509-2.047-0.303-3.081s0.714-1.985 1.46-2.731c0.746-0.746 1.696-1.254 2.731-1.46s2.107-0.1 3.081 0.303 1.807 1.087 2.394 1.964c0.586 0.877 0.899 1.908 0.899 2.963 0 1.415-0.562 2.771-1.562 3.771s-2.357 1.562-3.771 1.562z"></path>
</symbol>
<symbol id="password_icon" viewBox="0 0 32 32">
<path fill="#67d9b7" style="fill: var(--color1, #67d9b7)" d="M16 17.333c-0.406-0.005-0.804 0.115-1.139 0.343s-0.594 0.554-0.739 0.933-0.171 0.794-0.073 1.188c0.097 0.394 0.313 0.749 0.619 1.017v1.853c0 0.354 0.141 0.693 0.391 0.943s0.589 0.391 0.943 0.391c0.354 0 0.693-0.141 0.943-0.391s0.391-0.589 0.391-0.943v-1.853c0.305-0.268 0.521-0.623 0.619-1.017s0.072-0.809-0.073-1.188-0.403-0.705-0.739-0.933c-0.336-0.228-0.733-0.348-1.139-0.343zM22.667 12v-2.667c0-1.768-0.702-3.464-1.953-4.714s-2.946-1.953-4.714-1.953-3.464 0.702-4.714 1.953c-1.25 1.25-1.953 2.946-1.953 4.714v2.667c-1.061 0-2.078 0.421-2.828 1.172s-1.172 1.768-1.172 2.828v9.333c0 1.061 0.421 2.078 1.172 2.828s1.768 1.172 2.828 1.172h13.333c1.061 0 2.078-0.421 2.828-1.172s1.172-1.768 1.172-2.828v-9.333c0-1.061-0.421-2.078-1.172-2.828s-1.768-1.172-2.828-1.172zM12 9.333c0-1.061 0.421-2.078 1.172-2.828s1.768-1.172 2.828-1.172c1.061 0 2.078 0.421 2.828 1.172s1.172 1.768 1.172 2.828v2.667h-8v-2.667zM24 25.333c0 0.354-0.141 0.693-0.391 0.943s-0.589 0.391-0.943 0.391h-13.333c-0.354 0-0.693-0.141-0.943-0.391s-0.391-0.589-0.391-0.943v-9.333c0-0.354 0.14-0.693 0.391-0.943s0.589-0.391 0.943-0.391h13.333c0.354 0 0.693 0.141 0.943 0.391s0.391 0.589 0.391 0.943v9.333z"></path>
</symbol>
<symbol id="phone_icon" viewBox="0 0 32 32">
<path fill="#67d9b7" style="fill: var(--color1, #67d9b7)" d="M25.92 17.333c-0.293 0-0.6-0.093-0.893-0.16-0.594-0.131-1.178-0.305-1.747-0.52-0.619-0.225-1.299-0.213-1.909 0.033s-1.108 0.709-1.398 1.301l-0.293 0.6c-1.299-0.722-2.492-1.62-3.547-2.667-1.047-1.055-1.944-2.248-2.667-3.547l0.56-0.373c0.591-0.289 1.054-0.787 1.301-1.398s0.258-1.29 0.033-1.909c-0.212-0.57-0.385-1.154-0.52-1.747-0.067-0.293-0.12-0.6-0.16-0.907-0.162-0.939-0.654-1.79-1.387-2.398s-1.66-0.935-2.613-0.922h-4c-0.575-0.005-1.144 0.113-1.668 0.347s-0.993 0.579-1.372 1.010c-0.38 0.431-0.662 0.94-0.827 1.49s-0.211 1.13-0.132 1.699c0.71 5.586 3.261 10.776 7.25 14.75s9.188 6.507 14.776 7.197h0.507c0.983 0.001 1.933-0.359 2.667-1.013 0.422-0.377 0.759-0.84 0.989-1.357s0.347-1.077 0.345-1.643v-4c-0.016-0.926-0.354-1.818-0.954-2.523s-1.427-1.18-2.339-1.344v0zM26.587 25.333c-0 0.189-0.041 0.376-0.119 0.549s-0.192 0.326-0.334 0.451c-0.149 0.129-0.323 0.225-0.511 0.282s-0.386 0.075-0.582 0.051c-4.993-0.64-9.632-2.925-13.183-6.493s-5.814-8.217-6.43-13.214c-0.021-0.195-0.003-0.393 0.055-0.581s0.152-0.362 0.279-0.513c0.125-0.142 0.279-0.256 0.451-0.334s0.36-0.119 0.549-0.119h4c0.31-0.007 0.613 0.095 0.856 0.287s0.412 0.463 0.477 0.767c0.053 0.364 0.12 0.724 0.2 1.080 0.154 0.703 0.359 1.394 0.613 2.067l-1.867 0.867c-0.16 0.073-0.303 0.177-0.422 0.306s-0.212 0.28-0.273 0.445c-0.061 0.165-0.088 0.34-0.081 0.515s0.049 0.348 0.123 0.507c1.919 4.11 5.223 7.414 9.333 9.333 0.325 0.133 0.689 0.133 1.013 0 0.166-0.059 0.319-0.151 0.45-0.27s0.236-0.263 0.31-0.423l0.827-1.867c0.689 0.247 1.393 0.451 2.107 0.613 0.356 0.080 0.716 0.147 1.080 0.2 0.303 0.065 0.574 0.234 0.767 0.477s0.294 0.546 0.287 0.856l0.027 4.16z"></path>
</symbol>
<symbol id="surname_icon" viewBox="0 0 32 32">
<path fill="#67d9b7" style="fill: var(--color1, #67d9b7)" d="M16.4 16.293c0.711-0.616 1.282-1.377 1.673-2.233s0.593-1.786 0.593-2.727c0-1.768-0.702-3.464-1.953-4.714s-2.946-1.953-4.714-1.953-3.464 0.702-4.714 1.953c-1.25 1.25-1.953 2.946-1.953 4.714 0 0.941 0.202 1.871 0.593 2.727s0.962 1.617 1.673 2.233c-1.866 0.845-3.45 2.21-4.561 3.931s-1.703 3.726-1.705 5.775c0 0.354 0.14 0.693 0.391 0.943s0.589 0.391 0.943 0.391c0.354 0 0.693-0.141 0.943-0.391s0.391-0.589 0.391-0.943c0-2.122 0.843-4.157 2.343-5.657s3.535-2.343 5.657-2.343 4.157 0.843 5.657 2.343c1.5 1.5 2.343 3.535 2.343 5.657 0 0.354 0.141 0.693 0.391 0.943s0.589 0.391 0.943 0.391c0.354 0 0.693-0.141 0.943-0.391s0.391-0.589 0.391-0.943c-0.002-2.049-0.594-4.054-1.705-5.775s-2.695-3.086-4.561-3.931v0zM12 15.333c-0.791 0-1.564-0.235-2.222-0.674s-1.171-1.064-1.473-1.795c-0.303-0.731-0.382-1.535-0.228-2.311s0.535-1.489 1.095-2.048c0.559-0.559 1.272-0.94 2.048-1.095s1.58-0.075 2.311 0.228c0.731 0.303 1.356 0.815 1.795 1.473s0.674 1.431 0.674 2.222c0 1.061-0.421 2.078-1.172 2.828s-1.768 1.172-2.828 1.172zM24.987 15.76c0.853-0.961 1.411-2.148 1.605-3.418s0.017-2.57-0.509-3.742c-0.527-1.172-1.381-2.167-2.46-2.865s-2.337-1.069-3.622-1.069c-0.354 0-0.693 0.14-0.943 0.391s-0.391 0.589-0.391 0.943c0 0.354 0.141 0.693 0.391 0.943s0.589 0.391 0.943 0.391c1.061 0 2.078 0.421 2.828 1.172s1.172 1.768 1.172 2.828c-0.002 0.7-0.188 1.388-0.539 1.994s-0.855 1.109-1.461 1.459c-0.198 0.114-0.363 0.277-0.479 0.473s-0.181 0.419-0.187 0.647c-0.006 0.226 0.047 0.45 0.152 0.651s0.259 0.371 0.448 0.496l0.52 0.347 0.173 0.093c1.607 0.762 2.963 1.968 3.908 3.475s1.439 3.253 1.425 5.032c0 0.354 0.141 0.693 0.391 0.943s0.589 0.391 0.943 0.391c0.354 0 0.693-0.141 0.943-0.391s0.391-0.589 0.391-0.943c0.011-2.046-0.502-4.061-1.489-5.853s-2.416-3.302-4.151-4.387v0z"></path>
</symbol>
</defs>
</svg>
