<svg width="138" height="194" fill="none" xmlns="http://www.w3.org/2000/svg"><g clip-path="url(#a)"><path opacity=".6" d="M56.337 5.887 8.928 53.213c-7.837 7.824-7.837 20.509 0 28.332l47.409 47.326c7.837 7.824 20.544 7.824 28.382 0l47.409-47.326c7.837-7.823 7.837-20.508 0-28.332L84.718 5.887c-7.837-7.824-20.544-7.824-28.381 0Z" fill="#6CEEC7"/><g opacity=".9"><path opacity=".8" d="M44.664 150.385a8.847 8.847 0 0 1-6.269-2.601l-17.79-17.92A8.664 8.664 0 0 1 18 123.605a8.81 8.81 0 0 1 2.606-6.176l17.952-17.921a9.086 9.086 0 0 1 12.538 0l17.79 17.921a8.809 8.809 0 0 1 0 12.516l-17.953 17.921a8.841 8.841 0 0 1-6.269 2.519Zm0-51.04a6.157 6.157 0 0 0-4.478 1.87l-17.993 17.92a6.376 6.376 0 0 0 0 8.941l17.993 17.798a6.476 6.476 0 0 0 8.956 0l17.952-17.92a6.304 6.304 0 0 0 1.865-4.47 6.288 6.288 0 0 0-1.865-4.47l-17.993-17.84a6.229 6.229 0 0 0-4.437-1.829Z" fill="#6CEEC7"/></g></g><defs><clipPath id="a"><path fill="#fff" d="M0 0h138v194H0z"/></clipPath></defs></svg>